<svg width="66" height="45" viewBox="0 0 66 45" fill="none" xmlns="http://www.w3.org/2000/svg">
<g filter="url(#filter0_d_39_39)">
<rect x="-11" y="-4" width="77" height="49" fill="#D9D9D9"/>
<path d="M-214 -33H1706V80H-214V-33Z" fill="white"/>
<path d="M44.7994 31.3274C36.3311 28.6953 34.7499 22.8047 32.1708 19.0153C32.6228 20.4298 32.6131 28.2028 37.3359 33.1058C39.4091 35.2549 41.6647 36.3781 43.2224 37.1524C48.1414 39.5984 52.585 39.8446 55.211 39.965C58.0771 40.0933 60.9481 39.8686 63.7582 39.296C64.141 39.2184 64.4802 39.0009 64.7082 38.6867C64.9362 38.3726 65.0362 37.9849 64.9883 37.6011C64.7591 35.7552 64.3556 33.9346 63.783 32.1632C62.9068 29.4573 62.0872 27.1166 60.6871 24.8047C58.7286 21.8074 57.4971 19.4695 48.65 13.4106C48.65 13.4106 38.067 6.85643 31.2614 6.0452C30.685 5.9768 29.7065 5.9084 29.2587 6.46655C28.3617 7.58147 30.0285 9.74977 30.7514 10.862C30.8564 11.0234 30.6519 10.0617 30.6132 8.94675C30.6007 8.66357 30.9172 8.53635 31.1301 8.59517C32.5385 9.00557 37.1175 11.0863 38.7387 12.0152C51.1863 19.1671 54.6596 26.0291 55.2774 29.0989C55.3421 29.4089 55.3556 29.7272 55.3175 30.0415C55.1336 31.2727 52.8407 31.9758 50.8048 32.1537C48.5685 32.3479 45.9687 31.6639 44.7994 31.3274Z" fill="#8A1CD1"/>
<path d="M21.203 13.6739C29.6709 16.3046 31.2536 22.1967 33.833 25.9861C33.381 24.5715 33.3907 16.7971 28.6674 11.8955C26.5939 9.74502 24.338 8.62325 22.7788 7.84759C17.8634 5.40159 13.4165 5.15398 10.7902 5.03496C7.92428 4.90676 5.05338 5.13147 2.24347 5.70392C1.86018 5.78093 1.52039 5.99829 1.29204 6.31254C1.0637 6.62679 0.963628 7.01477 1.01185 7.39888C1.24106 9.24479 1.64461 11.0654 2.21721 12.8367C3.09358 15.5427 3.91328 17.8833 5.31354 20.1953C7.27225 23.1926 8.50387 25.5305 17.3519 31.5894C17.3519 31.5894 27.9361 38.1436 34.7425 38.9548C35.3176 39.0232 36.2976 39.0916 36.7455 38.5335C37.6426 37.4185 35.9327 35.2502 35.2526 34.1367C35.1752 34.0094 35.3521 34.9369 35.3908 36.0519C35.4033 36.3351 35.0867 36.4623 34.8739 36.4021C33.4653 35.9917 28.8858 33.9109 27.2643 32.9821C14.8223 25.8356 11.3486 18.9736 10.7307 15.9038C10.6662 15.5934 10.6522 15.2747 10.6893 14.9599C10.8745 13.7287 13.1677 13.0269 15.2038 12.849C17.4335 12.6603 20.0322 13.3443 21.203 13.6739Z" fill="#30156F"/>
</g>
<defs>
<filter id="filter0_d_39_39" x="-225" y="-40" width="1942" height="135" filterUnits="userSpaceOnUse" color-interpolation-filters="sRGB">
<feFlood flood-opacity="0" result="BackgroundImageFix"/>
<feColorMatrix in="SourceAlpha" type="matrix" values="0 0 0 0 0 0 0 0 0 0 0 0 0 0 0 0 0 0 127 0" result="hardAlpha"/>
<feOffset dy="4"/>
<feGaussianBlur stdDeviation="5.5"/>
<feComposite in2="hardAlpha" operator="out"/>
<feColorMatrix type="matrix" values="0 0 0 0 0 0 0 0 0 0 0 0 0 0 0 0 0 0 0.25 0"/>
<feBlend mode="normal" in2="BackgroundImageFix" result="effect1_dropShadow_39_39"/>
<feBlend mode="normal" in="SourceGraphic" in2="effect1_dropShadow_39_39" result="shape"/>
</filter>
</defs>
</svg>
