<svg width="25" height="24" viewBox="0 0 25 24" fill="none" xmlns="http://www.w3.org/2000/svg">
<path d="M14.6449 2.4941C15.4082 2.16819 16.2275 2 17.0556 2C17.8838 2 18.7031 2.16819 19.4664 2.4941C20.2295 2.81992 20.9207 3.29656 21.5015 3.89523C22.0825 4.49371 22.5419 5.20261 22.8547 5.98065C23.1675 6.75864 23.3282 7.59148 23.3282 8.43187C23.3282 9.27225 23.1675 10.1051 22.8547 10.8831C22.5419 11.6611 22.0826 12.3699 21.5016 12.9683C21.5016 12.9684 21.5017 12.9683 21.5016 12.9683L13.0322 21.6959C12.8436 21.8903 12.5841 22 12.3131 22C12.0421 22 11.7827 21.8903 11.594 21.6959L3.1246 12.9683C1.952 11.76 1.29858 10.1276 1.29858 8.43187C1.29858 6.73612 1.952 5.10375 3.1246 3.8954C4.29824 2.68599 5.89685 2.00053 7.57062 2.00053C9.24438 2.00053 10.843 2.68599 12.0166 3.8954L12.3131 4.20093L12.6095 3.89557C12.6094 3.89562 12.6095 3.89551 12.6095 3.89557C13.1903 3.29682 13.8817 2.81995 14.6449 2.4941ZM20.0633 5.28709C19.6655 4.87692 19.1948 4.55328 18.6791 4.33307C18.1634 4.11289 17.6119 4 17.0556 4C16.4994 4 15.9478 4.11289 15.4322 4.33307C14.9164 4.55328 14.4458 4.87692 14.0479 5.28709L13.0322 6.33378C12.8436 6.52814 12.5841 6.63785 12.3131 6.63785C12.0421 6.63785 11.7827 6.52814 11.594 6.33378L10.5785 5.28726C9.77523 4.45953 8.6926 4.00053 7.57062 4.00053C6.44863 4.00053 5.366 4.45953 4.56275 5.28726C3.75847 6.11606 3.30127 7.24666 3.30127 8.43187C3.30127 9.61708 3.75847 10.7477 4.56275 11.5765L12.3131 19.5631L20.0635 11.5765C20.4616 11.1664 20.7792 10.6777 20.9963 10.1378C21.2134 9.59786 21.3255 9.01809 21.3255 8.43187C21.3255 7.84565 21.2134 7.26587 20.9963 6.72592C20.7792 6.18601 20.4614 5.69713 20.0633 5.28709Z" fill="#30156F"/>
</svg>
