<svg width="24" height="24" viewBox="0 0 24 24" fill="none" xmlns="http://www.w3.org/2000/svg">
<path d="M0.500359 0.488155C1.16751 -0.162718 2.24916 -0.162718 2.91631 0.488155L11.9583 9.30964L21.0004 0.488155C21.6675 -0.162718 22.7492 -0.162718 23.4163 0.488155C24.0835 1.13903 24.0835 2.1943 23.4163 2.84518L14.3743 11.6667L23.4163 20.4882C24.0835 21.139 24.0835 22.1943 23.4163 22.8452C22.7492 23.4961 21.6675 23.4961 21.0004 22.8452L11.9583 14.0237L2.91631 22.8452C2.24916 23.4961 1.16751 23.4961 0.500359 22.8452C-0.166786 22.1943 -0.166786 21.139 0.500359 20.4882L9.54239 11.6667L0.500359 2.84518C-0.166786 2.1943 -0.166786 1.13903 0.500359 0.488155Z" fill="black"/>
</svg>
